<svg viewBox="0 0 340 137.52227959158168" height="137.52227959158168" width="340" style="width: 340px; height: 137.522px; position: absolute; top: 50%; left: 50%; transform: translate(-50%, -50%) scale(0.566176); z-index: 0; cursor: pointer;"><defs id="SvgjsDefs1423"><linearGradient id="SvgjsLinearGradient1430"><stop id="SvgjsStop1431" stop-color="#6d7cff" offset="0"></stop><stop id="SvgjsStop1432" stop-color="#ff51ff" offset="1"></stop></linearGradient><linearGradient id="SvgjsLinearGradient1433"><stop id="SvgjsStop1434" stop-color="#6d7cff" offset="0"></stop><stop id="SvgjsStop1435" stop-color="#ff51ff" offset="1"></stop></linearGradient><linearGradient id="SvgjsLinearGradient1436"><stop id="SvgjsStop1437" stop-color="#6d7cff" offset="0"></stop><stop id="SvgjsStop1438" stop-color="#ff51ff" offset="1"></stop></linearGradient></defs><g id="SvgjsG1424" featurekey="4yrtKO-0" transform="matrix(38.124289993381,0,0,38.124289993381,185.63476250579686,-26.326346356158318)" fill="url(#SvgjsLinearGradient1430)"><g xmlns="http://www.w3.org/2000/svg"><g><g><circle fill="url(#SvgjsLinearGradient1430)" cx="2.754" cy="4.085" r="0.171"></circle></g></g><g><g><circle fill="url(#SvgjsLinearGradient1430)" cx="3.217" cy="3.79" r="0.171"></circle></g></g><g><g><circle fill="url(#SvgjsLinearGradient1430)" cx="3.879" cy="2.493" r="0.17"></circle></g></g><g><g><circle fill="url(#SvgjsLinearGradient1430)" cx="3.591" cy="2.07" r="0.171"></circle></g></g><g><g><circle fill="url(#SvgjsLinearGradient1430)" cx="3.217" cy="1.198" r="0.171"></circle></g></g><g><g><circle fill="url(#SvgjsLinearGradient1430)" cx="2.754" cy="0.914" r="0.171"></circle></g></g><g><g><circle fill="url(#SvgjsLinearGradient1430)" cx="1.597" cy="1.283" r="0.171"></circle></g></g><g><g><circle fill="url(#SvgjsLinearGradient1430)" cx="1.689" cy="2.532" r="0.171"></circle></g></g><g><g><circle fill="url(#SvgjsLinearGradient1430)" cx="1.689" cy="3.229" r="0.17"></circle></g></g><g><g><circle fill="url(#SvgjsLinearGradient1430)" cx="2.188" cy="3.742" r="0.171"></circle></g></g><g><g><path fill="url(#SvgjsLinearGradient1430)" d="M2.464,2.558c0.065-0.068,0.175-0.068,0.24,0c0.066,0.065,0.066,0.174,0,0.239     c-0.065,0.069-0.175,0.069-0.24,0C2.396,2.731,2.396,2.623,2.464,2.558z"></path></g></g><g><g><polygon fill="url(#SvgjsLinearGradient1430)" points="2.829,4.113 2.682,4.113 2.682,3.609 2.046,2.975 2.046,2.16 2.678,1.531 2.678,0.902      2.825,0.902 2.825,1.592 2.195,2.223 2.195,2.914 2.829,3.548    "></polygon></g></g><g><g><polygon fill="url(#SvgjsLinearGradient1430)" points="2.807,3.63 2.702,3.527 3.104,3.124 3.104,2.515 2.725,2.134 3.145,1.715 3.145,1.198      3.291,1.198 3.291,1.777 2.935,2.134 3.253,2.452 3.253,3.187    "></polygon></g></g><g><g><rect x="2.468" y="2.9" transform="matrix(0.7071 0.7071 -0.7071 0.7071 2.9341 -1.1352)" fill="url(#SvgjsLinearGradient1430)" width="0.739" height="0.148"></rect></g></g><g><g><polygon fill="url(#SvgjsLinearGradient1430)" points="2.067,2.211 1.523,1.666 1.523,1.283 1.671,1.283 1.671,1.605 2.173,2.105    "></polygon></g></g><g><g><rect x="3.311" y="1.985" transform="matrix(0.7005 0.7137 -0.7137 0.7005 2.6385 -1.7338)" fill="url(#SvgjsLinearGradient1430)" width="0.148" height="0.583"></rect></g></g><g><g><rect x="1.6" y="2.654" transform="matrix(0.7087 0.7055 -0.7055 0.7087 2.4802 -0.5489)" fill="url(#SvgjsLinearGradient1430)" width="0.61" height="0.151"></rect></g></g><g><g><path fill="url(#SvgjsLinearGradient1430)" d="M1.688,3.496"></path></g></g><g><g><polygon fill="url(#SvgjsLinearGradient1430)" points="3.261,3.843 3.156,3.737 3.52,3.375 3.52,2.747 3.826,2.438 3.932,2.544 3.667,2.807      3.667,3.436    "></polygon></g></g><g><g><rect x="1.585" y="3.418" transform="matrix(0.7071 0.7071 -0.7071 0.7071 3.0378 -0.3476)" fill="url(#SvgjsLinearGradient1430)" width="0.707" height="0.151"></rect></g></g></g></g><g id="SvgjsG1425" featurekey="Gem1BN-0" transform="matrix(8.022755750928999,0,0,8.022755750928999,-6.097294294195078,-54.39428950008781)" fill="url(#SvgjsLinearGradient1433)"><path d="M0.76 20 l0 -2.32 l1.48 0 l0 -8.58 l-1.48 0 l0 -2.32 l10.56 0 l0 4.26 l-2.52 0 l0 -1.74 l-3.22 0 l0 2.78 l3.78 0 l0 2.52 l-3.78 0 l0 2.88 l3.34 0 l0 -1.94 l2.52 0 l0 4.46 l-10.68 0 z M14.862 20 l0 -2.32 l1.44 0 l0 -8.58 l-1.44 0 l0 -2.32 l6.86 0 c4.34 0 6.46 2.66 6.46 6.36 c0 3.56 -1.98 6.86 -6.44 6.86 l-6.88 0 z M19.662 17.48 l2 0 c1.98 0 2.98 -1.42 2.98 -4.2 c0 -2.72 -0.96 -3.98 -3.1 -3.98 l-1.88 0 l0 8.18 z"></path></g><g id="SvgjsG1426" featurekey="Gem1BN-1" transform="matrix(1.557433795463887,0,0,1.557433795463887,-0.7787168977319435,105.87668107212704)" fill="url(#SvgjsLinearGradient1436)"><path d="M0.5 16.34 l3.3 -0.68 c0.02 1.4 1.1 1.84 2.2 1.84 c1.04 0 1.64 -0.38 1.64 -1 c0 -2.1 -6.78 -1.14 -6.78 -5.94 c0 -2.64 2.04 -4.06 5.1 -4.06 c3 0 4.92 1.4 4.92 3.42 l0 0.16 l-3.3 0.68 c-0.02 -0.54 -0.14 -1.48 -1.7 -1.48 c-1.08 0 -1.62 0.44 -1.62 1.04 c0 2.18 6.78 1.04 6.78 5.82 c0 2.4 -1.7 4.14 -5.08 4.14 c-3.5 0 -5.46 -1.84 -5.46 -3.76 l0 -0.18 z  M16.881999999999998 20 l0 -2.32 l1.44 0 l0 -8.38 l-2.02 0 l0 2.04 l-2.52 0 l0 -4.56 l12.44 0 l0 4.56 l-2.52 0 l0 -2.04 l-2.02 0 l0 8.38 l1.44 0 l0 2.32 l-6.24 0 z M35.484 20.28 c-4.3 0 -6.52 -2.92 -6.52 -6.92 c0 -4.1 2.32 -6.86 6.64 -6.86 c4.08 0 6.54 2.46 6.54 6.7 c0 4.1 -2.32 7.08 -6.66 7.08 z M35.544000000000004 17.5 c1.88 0 3.06 -1.24 3.06 -4.16 c0 -2.88 -1.14 -4.06 -3.02 -4.06 c-1.94 0 -3.08 1.26 -3.08 4.1 c0 2.88 1.16 4.12 3.04 4.12 z M45.346000000000004 20 l0 -2.32 l1.44 0 l0 -8.58 l-1.44 0 l0 -2.32 l6.04 0 l0 2.32 l-1.24 0 l0 2.62 l0.94 0 l2.38 -2.62 l-1.06 0 l0 -2.32 l5.72 0 l0 2.32 l-1.1 0 l-3.32 3.7 l3.16 4.88 l1.36 0 l0 2.32 l-3.84 0 l0 -0.02 l-0.06 0.02 l-3.26 -5.26 l-0.92 0 l0 2.94 l1.44 0 l0 2.32 l-6.24 0 z M60.768 20 l0 -2.32 l1.02 0 l3.92 -10.9 l3.08 0 l4.34 10.9 l1.04 0 l0 2.32 l-5.52 0 l0 -2.32 l1.24 0 l-0.5 -1.32 l-4.24 0 l-0.44 1.32 l1.26 0 l0 2.32 l-5.2 0 z M65.888 14.04 l2.66 0 l-1.42 -4.02 z M76.83000000000001 20 l0 -2.32 l1.48 0 l0 -8.58 l-1.44 0 l0 -2.32 l6.24 0 l0 2.32 l-1.44 0 l0 8.38 l3.46 0 l0 -2.04 l2.52 0 l0 4.56 l-10.82 0 z M90.25200000000001 16.34 l3.3 -0.68 c0.02 1.4 1.1 1.84 2.2 1.84 c1.04 0 1.64 -0.38 1.64 -1 c0 -2.1 -6.78 -1.14 -6.78 -5.94 c0 -2.64 2.04 -4.06 5.1 -4.06 c3 0 4.92 1.4 4.92 3.42 l0 0.16 l-3.3 0.68 c-0.02 -0.54 -0.14 -1.48 -1.7 -1.48 c-1.08 0 -1.62 0.44 -1.62 1.04 c0 2.18 6.78 1.04 6.78 5.82 c0 2.4 -1.7 4.14 -5.08 4.14 c-3.5 0 -5.46 -1.84 -5.46 -3.76 l0 -0.18 z  M103.99400000000001 20 l0 -2.32 l1.44 0 l0 -8.58 l-1.44 0 l0 -2.32 l6.04 0 l0 2.32 l-1.24 0 l0 2.62 l0.94 0 l2.38 -2.62 l-1.06 0 l0 -2.32 l5.72 0 l0 2.32 l-1.1 0 l-3.32 3.7 l3.16 4.88 l1.36 0 l0 2.32 l-3.84 0 l0 -0.02 l-0.06 0.02 l-3.26 -5.26 l-0.92 0 l0 2.94 l1.44 0 l0 2.32 l-6.24 0 z M122.936 20 l0 -2.32 l1.44 0 l0 -2.42 l-4 -6.16 l-1.1 0 l0 -2.32 l6.04 0 l0 2.32 l-1.2 0 l2.02 3.22 l1.88 -3.22 l-1.12 0 l0 -2.32 l5.76 0 l0 2.32 l-1.1 0 l-3.82 6.16 l0 2.42 l1.44 0 l0 2.32 l-6.24 0 z M135.518 20 l0 -2.32 l1.44 0 l0 -8.58 l-1.44 0 l0 -2.32 l6.24 0 l0 2.32 l-1.44 0 l0 8.58 l1.44 0 l0 2.32 l-6.24 0 z"></path></g></svg>